<svg width="364" height="448" viewBox="0 0 364 448" fill="none" xmlns="http://www.w3.org/2000/svg">
<path fill-rule="evenodd" clip-rule="evenodd" d="M8.91303 10.9953L0.0264586 21.9906V46.1347V70.2802L2.99657 70.7016C4.63067 70.9329 5.96668 71.7199 5.96668 72.451C5.96668 73.1822 4.63067 73.9692 2.99657 74.2005C-1.15619 74.7894 -0.923977 78.4332 3.26658 78.4332C5.04865 78.4332 6.5067 79.0315 6.5067 79.7626C6.5067 80.4938 5.04865 81.092 3.26658 81.092C-0.923977 81.092 -1.15619 84.7358 2.99657 85.3247C4.63067 85.556 5.96668 86.343 5.96668 87.0742C5.96668 87.8053 4.63067 88.5923 2.99657 88.8236C-0.74037 89.3541 -1.03198 93.0564 2.66284 93.0564C4.11333 93.0564 5.59947 93.6546 5.96668 94.3858C6.35657 95.1608 5.25817 95.7151 3.3303 95.7151C-0.751172 95.7151 -1.23827 99.3324 2.76004 99.9479C4.26345 100.179 5.49362 100.966 5.49362 101.697C5.49362 102.428 4.26345 103.215 2.76004 103.447C1.25662 103.678 0.0264586 104.686 0.0264586 105.685C0.0264586 106.685 1.25662 107.693 2.76004 107.924C6.29825 108.468 6.29825 110.879 2.76004 111.423C-1.23827 112.039 -0.751172 115.656 3.3303 115.656C5.25817 115.656 6.35657 116.21 5.96668 116.985C5.59947 117.716 4.11333 118.315 2.66284 118.315C-0.869973 118.315 -0.784654 122.001 2.76004 122.547C6.29825 123.091 6.29825 125.502 2.76004 126.046C1.25662 126.278 0.0264586 127.285 0.0264586 128.285C0.0264586 129.285 1.25662 130.292 2.76004 130.524C6.32957 131.073 6.28529 133.481 2.69632 134.03C-0.876455 134.578 -0.196028 137.455 3.63811 138.013C7.16337 138.526 6.35982 140.914 2.66284 140.914C-0.869973 140.914 -0.784654 144.6 2.76004 145.147C6.29825 145.69 6.29825 148.102 2.76004 148.646L0.0264586 149.067V175.269V201.472L7.58674 210.706C13.3304 217.723 15.147 220.827 15.147 223.632C15.147 227.315 15.1621 227.323 22.7073 227.323H30.2676L30.2568 223.003C30.2492 219.64 29.2934 217.651 25.9474 214.03L21.6489 209.377L21.6381 122.507L21.6273 35.6366L27.6993 27.1246L33.7712 18.6113H44.1407H54.5102L61.2896 10.3412C65.0179 5.79209 68.069 2.67736 68.069 3.41783C68.069 4.15829 65.8819 7.40596 63.2088 10.635C60.5357 13.8641 58.3486 16.9801 58.3486 17.5584C58.3486 18.138 61.5499 18.6113 65.4629 18.6113H72.576L79.3241 10.635L86.0733 2.65875H94.2492H102.426L109.111 10.635L115.795 18.6113L164.025 18.6538C204.721 18.6897 212.582 19.0008 214.351 20.6479C216.136 22.3096 225.455 22.5994 277.199 22.5994C316.535 22.5994 338.187 23.0687 338.619 23.9288C338.986 24.6599 341.444 25.2582 344.083 25.2582H348.879V70.1605V115.063L341.319 124.297L333.759 133.531V141.21V148.89H341.267H348.777L349.098 140.687C349.297 135.608 349.934 132.276 350.77 131.935C351.832 131.503 352.12 141.143 352.12 177.198C352.12 216.298 352.357 223.253 353.74 224.665C355.175 226.131 355.36 220.568 355.36 175.91V125.501L359.68 120.309L364 115.116V66.4954V17.8748L356.683 8.9374L349.365 0H183.583H17.7996L8.91303 10.9953ZM200.914 4.65282C202.105 6.41956 197.636 6.64688 161.757 6.64688C127.074 6.64688 121.062 6.36107 119.911 4.65282C118.72 2.88608 123.189 2.65875 159.068 2.65875C193.751 2.65875 199.763 2.94457 200.914 4.65282ZM337.809 4.98516C338.137 6.19755 336.421 6.64688 331.469 6.64688H324.68L328.899 11.9644L333.117 17.2819H280.209H227.301L221.426 9.95969L215.551 2.63615L276.455 2.98046C324.018 3.24767 337.458 3.68769 337.809 4.98516ZM360.76 68.4629C360.76 98.1519 360.379 114.326 359.68 114.326C358.981 114.326 358.6 98.1519 358.6 68.4629C358.6 38.7739 358.981 22.5994 359.68 22.5994C360.379 22.5994 360.76 38.7739 360.76 68.4629ZM17.7964 203.235C15.5996 205.939 15.1783 192.99 15.1632 122.236C15.1503 61.719 15.4473 44.0316 16.4971 42.7395C17.5771 41.4101 17.9033 57.2177 18.1258 121.783C18.2791 166.171 18.1312 202.824 17.7964 203.235ZM333.759 156.202C333.759 159.431 333.975 159.525 341.319 159.525C348.663 159.525 348.879 159.431 348.879 156.202C348.879 152.973 348.663 152.878 341.319 152.878C333.975 152.878 333.759 152.973 333.759 156.202ZM333.759 167.501V171.49H341.319H348.879V167.501V163.513H341.319H333.759V167.501ZM333.759 178.136V182.125H341.319H348.879V178.136V174.148H341.319H333.759V178.136ZM333.759 190.101V194.089H341.319H348.879V190.101V186.113H341.319H333.759V190.101ZM333.759 200.736V204.724H341.319H348.879V200.736V196.748H341.319H333.759V200.736ZM333.759 212.7V216.688H341.319H348.879V212.7V208.712H341.319H333.759V212.7ZM333.759 223.148C333.759 225.69 335.191 228.951 338.079 232.991L342.399 239.031V325.033V411.034L336.327 419.546L330.255 428.059H319.823H309.39L302.978 436.036C299.45 440.423 296.081 444.012 295.488 444.012C294.896 444.012 296.946 440.852 300.044 436.991C303.143 433.13 305.678 429.54 305.678 429.015C305.678 428.489 302.557 428.059 298.742 428.059H291.806L284.971 436.002L278.137 443.947L269.973 443.979C264.431 444.001 261.136 443.384 259.712 442.06C257.943 440.413 250.09 440.102 209.448 440.066L161.282 440.024L155.455 432.712L149.628 425.401H88.4601C35.4064 425.401 27.1139 425.136 25.9474 423.407C25.1266 422.19 22.7602 421.412 19.8754 421.412H15.147V376.51V331.608L22.7073 322.374L30.2676 313.14V305.46V297.78H22.7591H15.2496L14.9289 305.984C14.729 311.062 14.0929 314.395 13.257 314.735C12.1942 315.167 11.9069 305.528 11.9069 269.473C11.9069 230.373 11.6693 223.418 10.2868 222.006C8.85147 220.54 8.66678 226.103 8.66678 270.761V321.169L4.34662 326.362L0.0264586 331.555V380.173V428.79L7.88267 438.395L15.7378 448H180.441H345.145L354.572 436.341L364 424.683V400.448V376.214H361.3C359.619 376.214 358.6 375.46 358.6 374.22C358.6 372.979 359.619 372.226 361.3 372.226C362.98 372.226 364 371.472 364 370.231C364 368.991 362.98 368.237 361.3 368.237C359.815 368.237 358.6 367.639 358.6 366.908C358.6 366.177 359.815 365.579 361.3 365.579C362.98 365.579 364 364.825 364 363.585C364 362.344 362.98 361.59 361.3 361.59C359.619 361.59 358.6 360.837 358.6 359.596C358.6 358.356 359.619 357.602 361.3 357.602C362.98 357.602 364 356.849 364 355.608C364 354.368 362.98 353.614 361.3 353.614C359.815 353.614 358.6 353.016 358.6 352.285C358.6 351.554 359.815 350.955 361.3 350.955C362.98 350.955 364 350.202 364 348.961C364 347.721 362.98 346.967 361.3 346.967C359.619 346.967 358.6 346.214 358.6 344.973C358.6 343.733 359.619 342.979 361.3 342.979C362.98 342.979 364 342.225 364 340.985C364 339.745 362.98 338.991 361.3 338.991C359.619 338.991 358.6 338.237 358.6 336.997C358.6 335.757 359.619 335.003 361.3 335.003C362.98 335.003 364 334.249 364 333.009C364 331.769 362.98 331.015 361.3 331.015C359.815 331.015 358.6 330.417 358.6 329.685C358.6 328.954 359.815 328.356 361.3 328.356C362.98 328.356 364 327.602 364 326.362C364 325.122 362.98 324.368 361.3 324.368C359.619 324.368 358.6 323.614 358.6 322.374C358.6 321.134 359.619 320.38 361.3 320.38C362.98 320.38 364 319.626 364 318.386C364 317.145 362.98 316.392 361.3 316.392C357.94 316.392 357.724 314.071 361.03 313.494C362.367 313.26 363.46 312.171 363.46 311.074C363.46 309.977 362.367 308.889 361.03 308.655C357.724 308.078 357.94 305.757 361.3 305.757C362.98 305.757 364 305.003 364 303.763C364 302.522 362.98 301.769 361.3 301.769C359.619 301.769 358.6 301.015 358.6 299.774C358.6 298.534 359.619 297.78 361.3 297.78H364V271.489V245.198L356.44 235.964C350.696 228.948 348.879 225.844 348.879 223.039C348.879 219.355 348.864 219.347 341.319 219.347H333.759V223.148ZM15.147 234.635C15.147 237.864 15.363 237.958 22.7073 237.958C30.0516 237.958 30.2676 237.864 30.2676 234.635C30.2676 231.406 30.0516 231.312 22.7073 231.312C15.363 231.312 15.147 231.406 15.147 234.635ZM15.147 245.935V249.923H22.7073H30.2676V245.935V241.947H22.7073H15.147V245.935ZM348.879 324.368C348.879 392.175 348.666 402.693 347.259 404.131C345.822 405.598 345.639 396.589 345.639 324.368C345.639 252.147 345.822 243.138 347.259 244.605C348.666 246.042 348.879 256.56 348.879 324.368ZM15.147 256.57V260.558H22.7073H30.2676V256.57V252.582H22.7073H15.147V256.57ZM15.147 268.534V272.522H22.7073H30.2676V268.534V264.546H22.7073H15.147V268.534ZM15.147 279.169V283.157H22.7073H30.2676V279.169V275.181H22.7073H15.147V279.169ZM15.147 290.469C15.147 293.698 15.363 293.792 22.7073 293.792C30.0516 293.792 30.2676 293.698 30.2676 290.469C30.2676 287.24 30.0516 287.145 22.7073 287.145C15.363 287.145 15.147 287.24 15.147 290.469ZM6.25073 378.43C6.03256 413.864 5.65455 424.643 4.61663 425.068C3.55387 425.504 3.26658 415.703 3.26658 378.983C3.26658 338.235 3.47287 332.344 4.90068 332.344C6.33389 332.344 6.50022 338.022 6.25073 378.43ZM140.972 434.706L145.19 440.024H92.2684H39.3464L35.1278 434.706L30.9091 429.389H83.8311H136.753L140.972 434.706Z" fill="white"/>
</svg>
