<svg width="209" height="209" viewBox="0 0 209 209" fill="none" xmlns="http://www.w3.org/2000/svg">
<g clip-path="url(#clip0_1431_20398)">
<path d="M7.04806 0L4.71721 1.17563C3.01408 2.03446 2.06856 2.98 1.20971 4.68311L0.0341006 7.01395V42.3715V77.729L3.56094 78.9669L7.08784 80.2037L7.247 82.6856C7.33468 84.0507 7.31337 85.1675 7.19903 85.1675C7.08469 85.1675 5.62333 84.6972 3.95279 84.1225C2.28226 83.5477 0.717275 83.0775 0.474888 83.0775C0.2325 83.0775 0.0340404 83.8739 0.0340404 84.8471C0.0340404 86.5547 0.157049 86.6623 3.56088 87.9178L7.08778 89.2189L7.24694 91.6345C7.33877 93.0292 7.18136 94.05 6.87444 94.05C6.58197 94.05 5.14963 93.5798 3.69148 93.005C2.23332 92.4303 0.813812 91.96 0.537082 91.96C-0.212059 91.96 -0.0720272 95.614 0.687205 95.8777C1.04642 96.0025 2.6923 96.6001 4.3447 97.2054L7.34903 98.3055V100.619C7.34903 101.892 7.15057 102.932 6.90818 102.932C6.6658 102.932 5.10083 102.462 3.43028 101.887C1.75974 101.313 0.298094 100.842 0.182054 100.842C0.0659357 100.842 0.0437966 101.724 0.133058 102.802C0.291239 104.714 0.380447 104.792 3.82219 105.999L7.34909 107.237V109.759V112.281L4.60596 111.318C3.09725 110.788 1.45136 110.188 0.94846 109.984C0.170703 109.669 0.0341006 109.917 0.0341006 111.648V113.683L3.6916 114.95L7.34909 116.218V118.72C7.34909 120.095 7.25942 121.22 7.15009 121.22C7.04069 121.22 5.39475 120.635 3.4926 119.919L0.0341006 118.617V120.64V122.664L3.56094 123.902L7.08784 125.139L7.247 127.621C7.33468 128.986 7.31235 130.102 7.198 130.102C7.08366 130.102 5.62333 129.632 3.95279 129.058C2.28226 128.483 0.717275 128.012 0.474888 128.012C0.2325 128.012 0.0340404 128.809 0.0340404 129.782C0.0340404 131.49 0.157109 131.597 3.56094 132.853L7.08778 134.154L7.24694 136.569C7.34134 138.001 7.18459 138.985 6.86124 138.985C6.56119 138.985 5.07882 138.516 3.56703 137.941C2.05524 137.366 0.62712 136.896 0.394251 136.896C0.161363 136.896 0.0438154 137.747 0.132997 138.789C0.289204 140.612 0.426874 140.731 3.82213 141.983L7.34903 143.284V145.576C7.34903 148.133 6.98841 148.31 4.14769 147.147C0.0300293 145.462 -0.0525282 145.472 0.129924 147.691C0.291858 149.66 0.359908 149.719 3.82213 150.934L7.34903 152.172V154.694V157.216L4.6059 156.253C3.09718 155.723 1.4513 155.123 0.948399 154.919C0.170643 154.604 0.0340404 154.852 0.0340404 156.583V158.618L3.69154 159.885L7.34903 161.153V163.655C7.34903 165.03 7.25936 166.155 7.15003 166.155C7.04063 166.155 5.39469 165.57 3.49254 164.854L0.0340404 163.552V165.565C0.0340404 167.575 0.0399433 167.581 3.56088 168.868L7.08778 170.156L7.24694 172.597C7.33462 173.94 7.21692 175.038 6.98569 175.037C6.7544 175.037 5.3278 174.567 3.81599 173.992C0.195599 172.616 0.0339801 172.647 0.0339801 174.717C0.0339801 176.425 0.156989 176.532 3.56082 177.788L7.08772 179.089L7.24688 181.504C7.34128 182.936 7.18329 183.92 6.86009 183.92C6.56004 183.92 5.07775 183.451 3.56594 182.876C2.05415 182.301 0.62706 181.831 0.394191 181.831C0.161303 181.831 0.0437551 182.682 0.132937 183.724C0.289144 185.547 0.426813 185.666 3.82207 186.918L7.34891 188.219V190.511C7.34891 193.068 6.98732 193.245 4.14661 192.082C0.0289248 190.397 -0.0525884 190.407 0.129864 192.626C0.291797 194.595 0.359848 194.654 3.82207 195.869L7.34891 197.107V199.649V202.191L3.84148 200.918C1.91223 200.217 0.237592 199.739 0.120703 199.856C-0.355975 200.333 0.657442 203.77 1.74427 205.362C2.38387 206.299 3.72697 207.5 4.7283 208.033C6.48143 208.964 10.1437 209 103.547 209C187.804 209 200.629 208.9 201.177 208.24C201.669 207.646 202.018 207.61 202.763 208.075C203.546 208.565 204.064 208.408 205.648 207.2C209.312 204.405 209.056 212.495 208.907 103.762L208.773 5.30154L207.679 3.8269C207.077 3.01558 205.666 1.82668 204.544 1.18481L202.503 0.0173491L104.776 0.00925086L7.04806 0ZM67.1305 2.6125H101.024H134.917L137.973 4.96375L141.029 7.315L163.144 7.34255L185.259 7.3701L190.634 14.3779L196.01 21.3858L195.859 108.293L195.786 151.015C193.856 151.015 181.734 151.08 179.864 151.08C179.387 151.355 175.228 156.22 170.63 161.396L162.27 170.808L143.241 170.833C142.851 170.834 142.361 170.829 141.89 170.823L141.891 170.813C141.891 170.572 141.843 170.333 141.751 170.11C141.659 169.887 141.524 169.685 141.353 169.514C141.182 169.343 140.98 169.208 140.757 169.115C140.534 169.023 140.295 168.975 140.054 168.975C139.813 168.975 139.573 169.023 139.35 169.115C139.127 169.207 138.925 169.343 138.754 169.513C138.583 169.684 138.448 169.887 138.356 170.11C138.263 170.333 138.216 170.572 138.216 170.813C138.216 171.055 138.264 171.294 138.356 171.516C138.448 171.739 138.584 171.942 138.754 172.112C138.925 172.283 139.128 172.418 139.351 172.511C139.574 172.603 139.813 172.65 140.054 172.65C140.442 172.649 140.82 172.526 141.133 172.297C141.447 172.069 141.68 171.747 141.799 171.378C142.297 171.386 142.854 171.4 143.1 171.379C149.536 171.38 162.272 171.379 162.272 171.379L169.633 163.149C177.059 154.848 180.014 151.514 180.014 151.514C180.014 151.514 195.81 151.512 195.785 151.47L195.709 195.199L192.921 198.703L190.132 202.206H165.712H141.29L138.195 204.544L135.099 206.881L100.855 206.895L66.611 206.909L64.6476 204.558L62.6821 202.206H43.4241H24.1661L18.6319 195.081L13.0966 187.955L13.0788 133.295L13.0611 78.6351L8.63107 73.7346L4.20103 68.8331L4.33669 47.8708L4.47337 26.9076L29.5758 26.7729L54.6793 26.6371L57.5122 23.7685L60.3451 20.8988H65.3977C68.6594 20.8988 70.9211 20.9097 72.4647 20.8927C72.5238 21.3335 72.7408 21.7378 73.0754 22.0308C73.41 22.3237 73.8395 22.4853 74.2842 22.4857C74.5255 22.4856 74.7645 22.4381 74.9874 22.3457C75.2103 22.2533 75.4128 22.1179 75.5834 21.9472C75.754 21.7765 75.8892 21.5739 75.9815 21.351C76.0738 21.128 76.1212 20.8891 76.1211 20.6478C76.121 20.1606 75.9275 19.6935 75.583 19.349C75.2386 19.0045 74.7714 18.811 74.2842 18.8109C73.8211 18.812 73.3755 18.988 73.0367 19.3036C72.6978 19.6193 72.4906 20.0512 72.4565 20.5131C70.9325 20.4264 68.7818 20.3763 65.2773 20.3763H59.889L56.9795 23.2562L54.07 26.135L29.3849 25.9993L4.69889 25.8625L8.89317 21.16L13.0864 16.4576L13.0904 11.8857L13.0943 7.31379H37.8039H62.5135L64.8218 4.96255L67.1305 2.6125ZM28.3552 20.9C26.7291 20.9 26.0031 21.2769 24.3304 22.99L22.2903 25.08H26.3142H30.3391V22.99C30.3391 20.9186 30.3213 20.9 28.3552 20.9ZM31.9066 20.9V22.99V25.08H33.9966H36.0866V22.99V20.9H33.9966H31.9066ZM37.1316 20.9V22.99V25.08H39.4828H41.8341V22.99V20.9H39.4828H37.1316ZM42.8791 20.9V22.99V25.08H45.2304H47.5816V22.99V20.9H45.2304H42.8791ZM48.6266 20.9V22.99V25.08H50.7166H52.8066V22.99V20.9H50.7166H48.6266Z" fill="#FCFF3B"/>
</g>
<defs>
<clipPath id="clip0_1431_20398">
<rect width="208.978" height="209" fill="white"/>
</clipPath>
</defs>
</svg>
