<svg width="823" height="59" viewBox="0 0 823 59" fill="none" xmlns="http://www.w3.org/2000/svg">
<path fill-rule="evenodd" clip-rule="evenodd" d="M29.5826 28.39C-4.05244 61.7185 -0.745882 58.2623 1.0043 58.2573C2.09317 58.2544 13.6572 48.3756 18.0776 43.6723C25.0513 36.2533 55.0302 6.80274 56.8363 5.59802C59.1309 4.06644 84.3087 3.94992 412.239 3.94992H765.172L769.787 8.14671C774.259 12.2131 802.879 40.6851 804.021 42.2029C806.529 45.5386 821.186 58.3877 822.129 58.0766C822.787 57.8594 810.19 44.7042 794.133 28.8413L764.94 0H411.587H58.2338L29.5826 28.39ZM65.774 25.1264C61.1478 29.7123 55.5646 35.2708 53.3669 37.4778C51.1692 39.6848 46.6738 43.9152 43.3773 46.8776L37.3835 52.2643L55.7524 52.3009L74.1213 52.3364L78.7285 48.3075C87.1887 40.9103 99.6088 28.5717 107.734 19.4928L110.157 16.7872H92.1706H74.1842L65.774 25.1264ZM120.874 34.6092L102.47 52.3364H121.109H139.749L157.245 35.0832C166.868 25.5945 174.741 17.5959 174.741 17.3085C174.741 17.0222 166.761 16.8089 157.009 16.8346L139.278 16.882L120.874 34.6092ZM196.644 24.4767C192.482 28.6655 184.31 36.6473 178.482 42.2147L167.887 52.3364H185.927H203.968L208.085 48.7993C214.89 42.9514 224.785 33.2672 231.841 25.5471C235.501 21.5438 238.834 17.9356 239.25 17.5278C239.666 17.1199 231.952 16.8039 222.109 16.8237L204.21 16.8602L196.644 24.4767ZM265.981 19.9708C262.029 24.4135 249.441 36.8458 241.516 44.1334C237.86 47.4958 234.575 50.7169 234.215 51.2917C233.764 52.0115 239.159 52.3364 251.574 52.3364H269.585L287.678 34.5618L305.772 16.7872H287.292H268.813L265.981 19.9708ZM316.456 34.5618L298.131 52.3364H316.212H334.293L339.121 48.1396C341.775 45.8309 345.454 42.3876 347.296 40.4867C349.138 38.5858 355.215 32.4762 360.8 26.9088L370.957 16.7872H352.869H334.779L316.456 34.5618ZM461.02 24.8252C465.373 29.2462 470.958 35.0891 473.43 37.8106C475.903 40.5321 478.375 43.1084 478.925 43.536C479.474 43.9636 482.009 46.1291 484.556 48.348L489.189 52.3828L506.806 52.1132L524.422 51.8427L519.119 46.4115C516.202 43.4244 508.156 35.5364 501.238 28.8838L488.661 16.7872H470.883H453.105L461.02 24.8252ZM518.384 17.272C518.384 17.5386 526.329 25.5372 536.04 35.0466L553.696 52.3364H572.005H590.314L572.08 34.5618L553.847 16.7872H536.115C526.362 16.7872 518.384 17.0054 518.384 17.272ZM590.263 24.4401C594.269 28.6497 602.324 36.6454 608.163 42.2088L618.779 52.3246L637.069 52.3305C649.848 52.3344 655.16 52.0165 654.696 51.2759C654.331 50.6923 652.447 48.8042 650.509 47.0791C648.571 45.354 640.685 37.8333 632.983 30.365L618.98 16.7872H600.98H582.979L590.263 24.4401ZM648.249 17.2157C648.249 17.4517 656.169 25.4503 665.848 34.9903L683.447 52.3364H701.846C722.587 52.3364 722.521 52.3739 714.082 45.4241C711.774 43.5232 704.119 36.3027 697.071 29.3775L684.257 16.7872H666.253C656.35 16.7872 648.249 16.9797 648.249 17.2157ZM717.219 21.4777C728.792 33.6671 747.692 51.4457 749.56 51.8999C750.704 52.1784 759.214 52.2791 768.47 52.1241L785.297 51.8427L781.764 48.2482C779.82 46.2703 776.743 43.6259 774.925 42.3708C773.108 41.1157 771.396 39.8004 771.121 39.4498C767.574 34.9143 762.364 29.18 756.727 23.6087L749.825 16.7872H731.295H712.766L717.219 21.4777Z" fill="white"/>
</svg>
