<svg width="350" height="322" viewBox="0 0 350 322" fill="none" xmlns="http://www.w3.org/2000/svg">
<path fill-rule="evenodd" clip-rule="evenodd" d="M0.0547337 0.0869141C0.0547337 0.0869141 -0.122348 14.505 0.160523 155.43L0.454942 302.362L22.9692 281.704L45.4834 261.045L60.7816 261.021C69.195 261.008 76.0797 261.266 76.0797 261.594C76.0797 261.922 67.8545 269.684 57.8016 278.844C47.7487 288.003 33.4354 301.122 25.9953 307.997L12.4683 320.497L35.9039 320.792L59.3383 321.087L65.005 315.792C76.2656 305.271 103.336 280.286 113.845 270.715L124.586 260.934L138.09 261.215L151.595 261.497L124.451 286.497C109.522 300.247 95.0621 313.634 92.3188 316.247L87.3311 320.997H110.859H134.386L154.591 302.268C165.704 291.968 179.425 279.366 185.081 274.266C190.737 269.165 196.092 264.093 196.981 262.994C198.421 261.213 199.91 260.997 210.723 260.997H222.851L196.514 285.233C182.029 298.563 167.371 312.063 163.941 315.233L157.704 320.997H181.372H205.041L211.278 315.235C236.641 291.803 252.305 277.288 260.235 269.868L269.471 261.225L285.347 261.111C294.295 261.047 301.222 261.397 301.222 261.914C301.222 262.418 300.833 262.98 300.356 263.164C299.879 263.347 290.936 271.372 280.483 280.997C270.028 290.622 258.023 301.647 253.806 305.497C249.588 309.347 244.183 314.41 241.795 316.747L237.451 320.997H261.12H284.789L289.149 316.747C294.71 311.324 323.771 284.563 338.446 271.351L349.714 261.205V135.749V10.5869V0.0872476C344.474 0.0853446 326.355 0 174.219 0C22.0594 0 5.06782 0.0869141 0.0547337 0.0869141ZM144.2 191.497C135.644 198.922 128.248 204.997 127.763 204.997C127.278 204.997 126.881 201.817 126.881 197.931C126.881 187.857 126.113 186.997 117.121 186.997C105.148 186.997 106.099 184.745 106.099 213.121V238.032L134.674 237.764L163.25 237.497V228.997V220.497L153.725 220.207C147.167 220.007 144.2 219.535 144.2 218.693C144.2 218.02 151.214 211.407 159.787 203.997C168.359 196.587 175.373 190.048 175.373 189.465C175.373 187.78 163.612 177.997 161.587 177.997C160.579 177.997 152.755 184.072 144.2 191.497ZM67.9815 192.518C59.3926 199.977 51.6339 205.914 50.679 205.759C49.3709 205.546 48.8063 203.522 48.3699 197.487L47.7926 189.497L39.2349 189.2C33.1687 188.989 30.4012 189.281 29.7269 190.2C29.2051 190.913 28.7698 201.735 28.7594 214.247L28.7421 236.997H57.0777H85.4133L85.0762 229.247L84.7391 221.497L75.7357 221.204C68.8867 220.981 66.5683 220.54 66.0453 219.36C65.5719 218.29 70.241 213.572 81.1102 204.14C89.7742 196.622 96.8621 190.01 96.8621 189.446C96.8621 188.147 86.1984 178.997 84.6836 178.997C84.0613 178.997 76.545 185.082 67.9815 192.518ZM338.169 311.497L327.246 320.997H338.48H349.714V311.497C349.714 306.272 349.575 301.997 349.403 301.997C349.232 301.997 344.176 306.272 338.169 311.497Z" fill="#004044"/>
</svg>
