<svg width="1309" height="176" viewBox="0 0 1309 176" fill="none" xmlns="http://www.w3.org/2000/svg">
<mask id="path-1-outside-1_2814_7" maskUnits="userSpaceOnUse" x="17.8398" y="43.0928" width="1269" height="104" fill="black">
<rect fill="white" x="17.8398" y="43.0928" width="1269" height="104"/>
<path d="M18.871 119.263V67.0819V44.7739H43.7007V94.4334L18.871 119.263ZM18.871 144.093V135.364V131.678L105.775 44.7739H130.605V57.1888L43.7007 144.093H18.871ZM68.5304 144.093V131.678L155.434 44.7739H180.264V57.1888L93.3601 144.093H68.5304ZM190.157 144.093V135.364V131.678L227.402 94.4334L190.157 57.1888V44.7739H214.987L252.231 82.0185H289.476V106.848H252.231L239.817 119.263H289.476L301.891 131.678V144.093H190.157ZM252.231 69.6036L227.402 44.7739H301.891V57.1888L289.476 69.6036H252.231ZM311.784 144.093V74.5502V44.7739H398.688L373.858 69.6036H336.614V82.0185H373.858L411.103 44.7739H423.518V69.6036L398.688 94.4334L423.518 119.263V144.093H324.199L349.028 119.263H386.273L373.858 106.848H336.614V119.263L311.784 144.093ZM468.133 144.093V135.364V131.678L480.548 119.263H505.378L480.548 144.093H468.133ZM492.963 106.848V94.4334L505.378 82.0185H542.623L517.793 106.848H492.963ZM492.963 144.093L517.793 119.263H555.037V106.848H530.208L579.867 57.1888V144.093H492.963ZM480.548 69.6036L468.133 57.1888V48.4596V44.7739H579.867L555.037 69.6036H480.548ZM659.206 144.093L676.941 126.357H730.148L739.016 135.225V144.093H659.206ZM659.206 135.225V104.188V90.8863L676.941 73.1507H739.016V82.0185L730.148 90.8863H685.809L676.941 99.754V117.49L659.206 135.225ZM746.082 144.093V94.4195V73.1507H763.818L825.892 135.225V144.093H808.156L763.818 99.754V117.49H772.685L790.421 135.225H763.818V144.093H746.082ZM832.958 144.093V94.4195V73.1507L850.694 90.8863V144.093H832.958ZM895.033 144.093L868.429 117.49H859.562V99.754H877.297L886.165 90.8863H859.562L841.826 73.1507H912.768V90.8863L895.033 108.622H894.963C894.201 109.384 892.746 110.839 890.599 113.056L912.768 135.225V144.093H895.033ZM919.835 144.093V106.82V90.8863L937.57 108.622V144.093H919.835ZM981.909 144.093L919.835 82.0185V75.7834V73.1507H937.57L981.909 117.49V73.1507H999.644V144.093H981.909ZM1006.71 144.093V94.4195V73.1507H1024.45V144.093H1006.71ZM1093.59 144.093L1031.51 82.0185V75.7834V73.1507H1049.25L1111.32 135.225V144.093H1093.59ZM1111.32 126.357L1093.59 108.622V73.1507H1111.32V126.357ZM1118.39 144.093V94.4195V73.1507H1136.12L1198.2 135.225V144.093H1180.46L1136.12 99.754V117.49H1144.99L1162.73 135.225H1136.12V144.093H1118.39ZM1214.13 144.093L1231.87 126.357H1276.21L1285.08 135.225V144.093H1214.13ZM1205.27 144.093V94.4195V73.1507H1223V126.357L1205.27 144.093Z"/>
</mask>
<path d="M18.871 119.263V67.0819V44.7739H43.7007V94.4334L18.871 119.263ZM18.871 144.093V135.364V131.678L105.775 44.7739H130.605V57.1888L43.7007 144.093H18.871ZM68.5304 144.093V131.678L155.434 44.7739H180.264V57.1888L93.3601 144.093H68.5304ZM190.157 144.093V135.364V131.678L227.402 94.4334L190.157 57.1888V44.7739H214.987L252.231 82.0185H289.476V106.848H252.231L239.817 119.263H289.476L301.891 131.678V144.093H190.157ZM252.231 69.6036L227.402 44.7739H301.891V57.1888L289.476 69.6036H252.231ZM311.784 144.093V74.5502V44.7739H398.688L373.858 69.6036H336.614V82.0185H373.858L411.103 44.7739H423.518V69.6036L398.688 94.4334L423.518 119.263V144.093H324.199L349.028 119.263H386.273L373.858 106.848H336.614V119.263L311.784 144.093ZM468.133 144.093V135.364V131.678L480.548 119.263H505.378L480.548 144.093H468.133ZM492.963 106.848V94.4334L505.378 82.0185H542.623L517.793 106.848H492.963ZM492.963 144.093L517.793 119.263H555.037V106.848H530.208L579.867 57.1888V144.093H492.963ZM480.548 69.6036L468.133 57.1888V48.4596V44.7739H579.867L555.037 69.6036H480.548ZM659.206 144.093L676.941 126.357H730.148L739.016 135.225V144.093H659.206ZM659.206 135.225V104.188V90.8863L676.941 73.1507H739.016V82.0185L730.148 90.8863H685.809L676.941 99.754V117.49L659.206 135.225ZM746.082 144.093V94.4195V73.1507H763.818L825.892 135.225V144.093H808.156L763.818 99.754V117.49H772.685L790.421 135.225H763.818V144.093H746.082ZM832.958 144.093V94.4195V73.1507L850.694 90.8863V144.093H832.958ZM895.033 144.093L868.429 117.49H859.562V99.754H877.297L886.165 90.8863H859.562L841.826 73.1507H912.768V90.8863L895.033 108.622H894.963C894.201 109.384 892.746 110.839 890.599 113.056L912.768 135.225V144.093H895.033ZM919.835 144.093V106.82V90.8863L937.57 108.622V144.093H919.835ZM981.909 144.093L919.835 82.0185V75.7834V73.1507H937.57L981.909 117.49V73.1507H999.644V144.093H981.909ZM1006.71 144.093V94.4195V73.1507H1024.45V144.093H1006.71ZM1093.59 144.093L1031.51 82.0185V75.7834V73.1507H1049.25L1111.32 135.225V144.093H1093.59ZM1111.32 126.357L1093.59 108.622V73.1507H1111.32V126.357ZM1118.39 144.093V94.4195V73.1507H1136.12L1198.2 135.225V144.093H1180.46L1136.12 99.754V117.49H1144.99L1162.73 135.225H1136.12V144.093H1118.39ZM1214.13 144.093L1231.87 126.357H1276.21L1285.08 135.225V144.093H1214.13ZM1205.27 144.093V94.4195V73.1507H1223V126.357L1205.27 144.093Z" fill="#D70000"/>
<path d="M18.871 119.263H17.9228V121.552L19.5414 119.934L18.871 119.263ZM18.871 44.7739V43.8258H17.9228V44.7739H18.871ZM43.7007 44.7739H44.6489V43.8258H43.7007V44.7739ZM43.7007 94.4334L44.3711 95.1038L44.6489 94.8261V94.4334H43.7007ZM18.871 144.093H17.9228V145.041H18.871V144.093ZM18.871 131.678L18.2005 131.007L17.9228 131.285V131.678H18.871ZM105.775 44.7739V43.8258H105.382L105.104 44.1035L105.775 44.7739ZM130.605 44.7739H131.553V43.8258H130.605V44.7739ZM130.605 57.1888L131.275 57.8593L131.553 57.5815V57.1888H130.605ZM43.7007 144.093V145.041H44.0934L44.3711 144.763L43.7007 144.093ZM68.5304 144.093H67.5822V145.041H68.5304V144.093ZM68.5304 131.678L67.8599 131.007L67.5822 131.285V131.678H68.5304ZM155.434 44.7739V43.8258H155.042L154.764 44.1035L155.434 44.7739ZM180.264 44.7739H181.212V43.8258H180.264V44.7739ZM180.264 57.1888L180.935 57.8593L181.212 57.5815V57.1888H180.264ZM93.3601 144.093V145.041H93.7528L94.0306 144.763L93.3601 144.093ZM19.8191 119.263V67.0819H17.9228V119.263H19.8191ZM19.8191 67.0819V44.7739H17.9228V67.0819H19.8191ZM18.871 45.7221H43.7007V43.8258H18.871V45.7221ZM42.7525 44.7739V94.4334H44.6489V44.7739H42.7525ZM43.0302 93.7629L18.2005 118.593L19.5414 119.934L44.3711 95.1038L43.0302 93.7629ZM19.8191 144.093V135.364H17.9228V144.093H19.8191ZM19.8191 135.364V131.678H17.9228V135.364H19.8191ZM19.5414 132.348L106.445 45.4444L105.104 44.1035L18.2005 131.007L19.5414 132.348ZM105.775 45.7221H130.605V43.8258H105.775V45.7221ZM129.656 44.7739V57.1888H131.553V44.7739H129.656ZM129.934 56.5183L43.0302 143.422L44.3711 144.763L131.275 57.8593L129.934 56.5183ZM43.7007 143.145H18.871V145.041H43.7007V143.145ZM69.4786 144.093V131.678H67.5822V144.093H69.4786ZM69.2008 132.348L156.105 45.4444L154.764 44.1035L67.8599 131.007L69.2008 132.348ZM155.434 45.7221H180.264V43.8258H155.434V45.7221ZM179.316 44.7739V57.1888H181.212V44.7739H179.316ZM179.594 56.5183L92.6896 143.422L94.0306 144.763L180.935 57.8593L179.594 56.5183ZM93.3601 143.145H68.5304V145.041H93.3601V143.145ZM190.157 144.093H189.209V145.041H190.157V144.093ZM190.157 131.678L189.487 131.007L189.209 131.285V131.678H190.157ZM227.402 94.4334L228.072 95.1038L228.743 94.4334L228.072 93.7629L227.402 94.4334ZM190.157 57.1888H189.209V57.5815L189.487 57.8593L190.157 57.1888ZM190.157 44.7739V43.8258H189.209V44.7739H190.157ZM214.987 44.7739L215.657 44.1035L215.38 43.8258H214.987V44.7739ZM252.231 82.0185L251.561 82.689L251.839 82.9667H252.231V82.0185ZM289.476 82.0185H290.424V81.0703H289.476V82.0185ZM289.476 106.848V107.796H290.424V106.848H289.476ZM252.231 106.848V105.9H251.839L251.561 106.178L252.231 106.848ZM239.817 119.263L239.146 118.593L237.527 120.211H239.817V119.263ZM289.476 119.263L290.146 118.593L289.869 118.315H289.476V119.263ZM301.891 131.678H302.839V131.285L302.561 131.007L301.891 131.678ZM301.891 144.093V145.041H302.839V144.093H301.891ZM252.231 69.6036L251.561 70.2741L251.839 70.5518H252.231V69.6036ZM227.402 44.7739V43.8258H225.113L226.731 45.4444L227.402 44.7739ZM301.891 44.7739H302.839V43.8258H301.891V44.7739ZM301.891 57.1888L302.561 57.8593L302.839 57.5815V57.1888H301.891ZM289.476 69.6036V70.5518H289.869L290.146 70.2741L289.476 69.6036ZM191.105 144.093V135.364H189.209V144.093H191.105ZM191.105 135.364V131.678H189.209V135.364H191.105ZM190.828 132.348L228.072 95.1038L226.731 93.7629L189.487 131.007L190.828 132.348ZM228.072 93.7629L190.828 56.5183L189.487 57.8593L226.731 95.1038L228.072 93.7629ZM191.105 57.1888V44.7739H189.209V57.1888H191.105ZM190.157 45.7221H214.987V43.8258H190.157V45.7221ZM214.316 45.4444L251.561 82.689L252.902 81.348L215.657 44.1035L214.316 45.4444ZM252.231 82.9667H289.476V81.0703H252.231V82.9667ZM288.528 82.0185V106.848H290.424V82.0185H288.528ZM289.476 105.9H252.231V107.796H289.476V105.9ZM251.561 106.178L239.146 118.593L240.487 119.934L252.902 107.519L251.561 106.178ZM239.817 120.211H289.476V118.315H239.817V120.211ZM288.806 119.934L301.22 132.348L302.561 131.007L290.146 118.593L288.806 119.934ZM300.943 131.678V144.093H302.839V131.678H300.943ZM301.891 143.145H190.157V145.041H301.891V143.145ZM252.902 68.9332L228.072 44.1035L226.731 45.4444L251.561 70.2741L252.902 68.9332ZM227.402 45.7221H301.891V43.8258H227.402V45.7221ZM300.943 44.7739V57.1888H302.839V44.7739H300.943ZM301.22 56.5183L288.806 68.9332L290.146 70.2741L302.561 57.8593L301.22 56.5183ZM289.476 68.6555H252.231V70.5518H289.476V68.6555ZM311.784 144.093H310.836V146.382L312.454 144.763L311.784 144.093ZM311.784 44.7739V43.8258H310.836V44.7739H311.784ZM398.688 44.7739L399.358 45.4444L400.977 43.8258H398.688V44.7739ZM373.858 69.6036V70.5518H374.251L374.529 70.2741L373.858 69.6036ZM336.614 69.6036V68.6555H335.665V69.6036H336.614ZM336.614 82.0185H335.665V82.9667H336.614V82.0185ZM373.858 82.0185V82.9667H374.251L374.529 82.689L373.858 82.0185ZM411.103 44.7739V43.8258H410.71L410.432 44.1035L411.103 44.7739ZM423.518 44.7739H424.466V43.8258H423.518V44.7739ZM423.518 69.6036L424.188 70.2741L424.466 69.9964V69.6036H423.518ZM398.688 94.4334L398.017 93.7629L397.347 94.4334L398.017 95.1038L398.688 94.4334ZM423.518 119.263H424.466V118.87L424.188 118.593L423.518 119.263ZM423.518 144.093V145.041H424.466V144.093H423.518ZM324.199 144.093L323.528 143.422L321.91 145.041H324.199V144.093ZM349.028 119.263V118.315H348.636L348.358 118.593L349.028 119.263ZM386.273 119.263V120.211H388.562L386.944 118.593L386.273 119.263ZM373.858 106.848L374.529 106.178L374.251 105.9H373.858V106.848ZM336.614 106.848V105.9H335.665V106.848H336.614ZM336.614 119.263L337.284 119.934L337.562 119.656V119.263H336.614ZM312.732 144.093V74.5502H310.836V144.093H312.732ZM312.732 74.5502V44.7739H310.836V74.5502H312.732ZM311.784 45.7221H398.688V43.8258H311.784V45.7221ZM398.017 44.1035L373.188 68.9332L374.529 70.2741L399.358 45.4444L398.017 44.1035ZM373.858 68.6555H336.614V70.5518H373.858V68.6555ZM335.665 69.6036V82.0185H337.562V69.6036H335.665ZM336.614 82.9667H373.858V81.0703H336.614V82.9667ZM374.529 82.689L411.773 45.4444L410.432 44.1035L373.188 81.348L374.529 82.689ZM411.103 45.7221H423.518V43.8258H411.103V45.7221ZM422.569 44.7739V69.6036H424.466V44.7739H422.569ZM422.847 68.9332L398.017 93.7629L399.358 95.1038L424.188 70.2741L422.847 68.9332ZM398.017 95.1038L422.847 119.934L424.188 118.593L399.358 93.7629L398.017 95.1038ZM422.569 119.263V144.093H424.466V119.263H422.569ZM423.518 143.145H324.199V145.041H423.518V143.145ZM324.869 144.763L349.699 119.934L348.358 118.593L323.528 143.422L324.869 144.763ZM349.028 120.211H386.273V118.315H349.028V120.211ZM386.944 118.593L374.529 106.178L373.188 107.519L385.603 119.934L386.944 118.593ZM373.858 105.9H336.614V107.796H373.858V105.9ZM335.665 106.848V119.263H337.562V106.848H335.665ZM335.943 118.593L311.113 143.422L312.454 144.763L337.284 119.934L335.943 118.593ZM468.133 144.093H467.185V145.041H468.133V144.093ZM468.133 131.678L467.463 131.007L467.185 131.285V131.678H468.133ZM480.548 119.263V118.315H480.156L479.878 118.593L480.548 119.263ZM505.378 119.263L506.049 119.934L507.667 118.315H505.378V119.263ZM480.548 144.093V145.041H480.941L481.219 144.763L480.548 144.093ZM492.963 106.848H492.015V107.796H492.963V106.848ZM492.963 94.4334L492.293 93.7629L492.015 94.0406V94.4334H492.963ZM505.378 82.0185V81.0703H504.985L504.708 81.348L505.378 82.0185ZM542.623 82.0185L543.293 82.689L544.912 81.0703H542.623V82.0185ZM517.793 106.848V107.796H518.186L518.463 107.519L517.793 106.848ZM492.963 144.093L492.293 143.422L490.674 145.041H492.963V144.093ZM517.793 119.263V118.315H517.4L517.122 118.593L517.793 119.263ZM555.037 119.263V120.211H555.986V119.263H555.037ZM555.037 106.848H555.986V105.9H555.037V106.848ZM530.208 106.848L529.537 106.178L527.919 107.796H530.208V106.848ZM579.867 57.1888H580.815V54.8997L579.197 56.5183L579.867 57.1888ZM579.867 144.093V145.041H580.815V144.093H579.867ZM480.548 69.6036L479.878 70.2741L480.156 70.5518H480.548V69.6036ZM468.133 57.1888H467.185V57.5815L467.463 57.8593L468.133 57.1888ZM468.133 44.7739V43.8258H467.185V44.7739H468.133ZM579.867 44.7739L580.538 45.4444L582.156 43.8258H579.867V44.7739ZM555.037 69.6036V70.5518H555.43L555.708 70.2741L555.037 69.6036ZM469.082 144.093V135.364H467.185V144.093H469.082ZM469.082 135.364V131.678H467.185V135.364H469.082ZM468.804 132.348L481.219 119.934L479.878 118.593L467.463 131.007L468.804 132.348ZM480.548 120.211H505.378V118.315H480.548V120.211ZM504.708 118.593L479.878 143.422L481.219 144.763L506.049 119.934L504.708 118.593ZM480.548 143.145H468.133V145.041H480.548V143.145ZM493.911 106.848V94.4334H492.015V106.848H493.911ZM493.634 95.1038L506.049 82.689L504.708 81.348L492.293 93.7629L493.634 95.1038ZM505.378 82.9667H542.623V81.0703H505.378V82.9667ZM541.952 81.348L517.122 106.178L518.463 107.519L543.293 82.689L541.952 81.348ZM517.793 105.9H492.963V107.796H517.793V105.9ZM493.634 144.763L518.463 119.934L517.122 118.593L492.293 143.422L493.634 144.763ZM517.793 120.211H555.037V118.315H517.793V120.211ZM555.986 119.263V106.848H554.089V119.263H555.986ZM555.037 105.9H530.208V107.796H555.037V105.9ZM530.878 107.519L580.538 57.8593L579.197 56.5183L529.537 106.178L530.878 107.519ZM578.919 57.1888V144.093H580.815V57.1888H578.919ZM579.867 143.145H492.963V145.041H579.867V143.145ZM481.219 68.9332L468.804 56.5183L467.463 57.8593L479.878 70.2741L481.219 68.9332ZM469.082 57.1888V48.4596H467.185V57.1888H469.082ZM469.082 48.4596V44.7739H467.185V48.4596H469.082ZM468.133 45.7221H579.867V43.8258H468.133V45.7221ZM579.197 44.1035L554.367 68.9332L555.708 70.2741L580.538 45.4444L579.197 44.1035ZM555.037 68.6555H480.548V70.5518H555.037V68.6555ZM659.206 144.093L658.535 143.422L656.917 145.041H659.206V144.093ZM676.941 126.357V125.409H676.549L676.271 125.687L676.941 126.357ZM730.148 126.357L730.818 125.687L730.541 125.409H730.148V126.357ZM739.016 135.225H739.964V134.832L739.686 134.555L739.016 135.225ZM739.016 144.093V145.041H739.964V144.093H739.016ZM659.206 135.225H658.258V137.514L659.876 135.895L659.206 135.225ZM659.206 90.8863L658.535 90.2158L658.258 90.4935V90.8863H659.206ZM676.941 73.1507V72.2026H676.549L676.271 72.4803L676.941 73.1507ZM739.016 73.1507H739.964V72.2026H739.016V73.1507ZM739.016 82.0185L739.686 82.689L739.964 82.4112V82.0185H739.016ZM730.148 90.8863V91.8344H730.541L730.818 91.5567L730.148 90.8863ZM685.809 90.8863V89.9381H685.416L685.139 90.2158L685.809 90.8863ZM676.941 99.754L676.271 99.0835L675.993 99.3613V99.754H676.941ZM676.941 117.49L677.612 118.16L677.89 117.882V117.49H676.941ZM659.876 144.763L677.612 127.028L676.271 125.687L658.535 143.422L659.876 144.763ZM676.941 127.305H730.148V125.409H676.941V127.305ZM729.477 127.028L738.345 135.895L739.686 134.555L730.818 125.687L729.477 127.028ZM738.067 135.225V144.093H739.964V135.225H738.067ZM739.016 143.145H659.206V145.041H739.016V143.145ZM660.154 135.225V104.188H658.258V135.225H660.154ZM660.154 104.188V90.8863H658.258V104.188H660.154ZM659.876 91.5567L677.612 73.8212L676.271 72.4803L658.535 90.2158L659.876 91.5567ZM676.941 74.0989H739.016V72.2026H676.941V74.0989ZM738.067 73.1507V82.0185H739.964V73.1507H738.067ZM738.345 81.348L729.477 90.2158L730.818 91.5567L739.686 82.689L738.345 81.348ZM730.148 89.9381H685.809V91.8344H730.148V89.9381ZM685.139 90.2158L676.271 99.0835L677.612 100.424L686.48 91.5567L685.139 90.2158ZM675.993 99.754V117.49H677.89V99.754H675.993ZM676.271 116.819L658.535 134.555L659.876 135.895L677.612 118.16L676.271 116.819ZM746.082 144.093H745.134V145.041H746.082V144.093ZM746.082 73.1507V72.2026H745.134V73.1507H746.082ZM763.818 73.1507L764.488 72.4803L764.21 72.2026H763.818V73.1507ZM825.892 135.225H826.84V134.832L826.562 134.555L825.892 135.225ZM825.892 144.093V145.041H826.84V144.093H825.892ZM808.156 144.093L807.486 144.763L807.764 145.041H808.156V144.093ZM763.818 99.754L764.488 99.0835L762.869 97.4649V99.754H763.818ZM763.818 117.49H762.869V118.438H763.818V117.49ZM772.685 117.49L773.356 116.819L773.078 116.541H772.685V117.49ZM790.421 135.225V136.173H792.71L791.091 134.555L790.421 135.225ZM763.818 135.225V134.277H762.869V135.225H763.818ZM763.818 144.093V145.041H764.766V144.093H763.818ZM747.03 144.093V94.4195H745.134V144.093H747.03ZM747.03 94.4195V73.1507H745.134V94.4195H747.03ZM746.082 74.0989H763.818V72.2026H746.082V74.0989ZM763.147 73.8212L825.221 135.895L826.562 134.555L764.488 72.4803L763.147 73.8212ZM824.944 135.225V144.093H826.84V135.225H824.944ZM825.892 143.145H808.156V145.041H825.892V143.145ZM808.827 143.422L764.488 99.0835L763.147 100.424L807.486 144.763L808.827 143.422ZM762.869 99.754V117.49H764.766V99.754H762.869ZM763.818 118.438H772.685V116.541H763.818V118.438ZM772.015 118.16L789.75 135.895L791.091 134.555L773.356 116.819L772.015 118.16ZM790.421 134.277H763.818V136.173H790.421V134.277ZM762.869 135.225V144.093H764.766V135.225H762.869ZM763.818 143.145H746.082V145.041H763.818V143.145ZM832.958 144.093H832.01V145.041H832.958V144.093ZM832.958 73.1507L833.629 72.4803L832.01 70.8617V73.1507H832.958ZM850.694 90.8863H851.642V90.4935L851.364 90.2158L850.694 90.8863ZM850.694 144.093V145.041H851.642V144.093H850.694ZM895.033 144.093L894.362 144.763L894.64 145.041H895.033V144.093ZM868.429 117.49L869.1 116.819L868.822 116.541H868.429V117.49ZM859.562 117.49H858.613V118.438H859.562V117.49ZM859.562 99.754V98.8058H858.613V99.754H859.562ZM877.297 99.754V100.702H877.69L877.968 100.424L877.297 99.754ZM886.165 90.8863L886.835 91.5567L888.454 89.9381H886.165V90.8863ZM859.562 90.8863L858.891 91.5567L859.169 91.8344H859.562V90.8863ZM841.826 73.1507V72.2026H839.537L841.156 73.8212L841.826 73.1507ZM912.768 73.1507H913.716V72.2026H912.768V73.1507ZM912.768 90.8863L913.439 91.5567L913.716 91.279V90.8863H912.768ZM895.033 108.622V109.57H895.425L895.703 109.292L895.033 108.622ZM894.963 108.622V107.674H894.571L894.293 107.951L894.963 108.622ZM890.599 113.056L889.918 112.396L889.268 113.066L889.928 113.726L890.599 113.056ZM912.768 135.225H913.716V134.832L913.439 134.555L912.768 135.225ZM912.768 144.093V145.041H913.716V144.093H912.768ZM833.907 144.093V94.4195H832.01V144.093H833.907ZM833.907 94.4195V73.1507H832.01V94.4195H833.907ZM832.288 73.8212L850.023 91.5567L851.364 90.2158L833.629 72.4803L832.288 73.8212ZM849.746 90.8863V144.093H851.642V90.8863H849.746ZM850.694 143.145H832.958V145.041H850.694V143.145ZM895.703 143.422L869.1 116.819L867.759 118.16L894.362 144.763L895.703 143.422ZM868.429 116.541H859.562V118.438H868.429V116.541ZM860.51 117.49V99.754H858.613V117.49H860.51ZM859.562 100.702H877.297V98.8058H859.562V100.702ZM877.968 100.424L886.835 91.5567L885.494 90.2158L876.627 99.0835L877.968 100.424ZM886.165 89.9381H859.562V91.8344H886.165V89.9381ZM860.232 90.2158L842.497 72.4803L841.156 73.8212L858.891 91.5567L860.232 90.2158ZM841.826 74.0989H912.768V72.2026H841.826V74.0989ZM911.82 73.1507V90.8863H913.716V73.1507H911.82ZM912.098 90.2158L894.362 107.951L895.703 109.292L913.439 91.5567L912.098 90.2158ZM895.033 107.674H894.963V109.57H895.033V107.674ZM894.293 107.951C893.529 108.715 892.07 110.174 889.918 112.396L891.28 113.715C893.422 111.504 894.873 110.053 895.634 109.292L894.293 107.951ZM889.928 113.726L912.098 135.895L913.439 134.555L891.269 112.385L889.928 113.726ZM911.82 135.225V144.093H913.716V135.225H911.82ZM912.768 143.145H895.033V145.041H912.768V143.145ZM919.835 144.093H918.886V145.041H919.835V144.093ZM919.835 90.8863L920.505 90.2158L918.886 88.5972V90.8863H919.835ZM937.57 108.622H938.518V108.229L938.241 107.951L937.57 108.622ZM937.57 144.093V145.041H938.518V144.093H937.57ZM981.909 144.093L981.238 144.763L981.516 145.041H981.909V144.093ZM919.835 82.0185H918.886V82.4112L919.164 82.689L919.835 82.0185ZM919.835 73.1507V72.2026H918.886V73.1507H919.835ZM937.57 73.1507L938.241 72.4803L937.963 72.2026H937.57V73.1507ZM981.909 117.49L981.238 118.16L982.857 119.779V117.49H981.909ZM981.909 73.1507V72.2026H980.961V73.1507H981.909ZM999.644 73.1507H1000.59V72.2026H999.644V73.1507ZM999.644 144.093V145.041H1000.59V144.093H999.644ZM920.783 144.093V106.82H918.886V144.093H920.783ZM920.783 106.82V90.8863H918.886V106.82H920.783ZM919.164 91.5567L936.9 109.292L938.241 107.951L920.505 90.2158L919.164 91.5567ZM936.622 108.622V144.093H938.518V108.622H936.622ZM937.57 143.145H919.835V145.041H937.57V143.145ZM982.579 143.422L920.505 81.348L919.164 82.689L981.238 144.763L982.579 143.422ZM920.783 82.0185V75.7834H918.886V82.0185H920.783ZM920.783 75.7834V73.1507H918.886V75.7834H920.783ZM919.835 74.0989H937.57V72.2026H919.835V74.0989ZM936.9 73.8212L981.238 118.16L982.579 116.819L938.241 72.4803L936.9 73.8212ZM982.857 117.49V73.1507H980.961V117.49H982.857ZM981.909 74.0989H999.644V72.2026H981.909V74.0989ZM998.696 73.1507V144.093H1000.59V73.1507H998.696ZM999.644 143.145H981.909V145.041H999.644V143.145ZM1006.71 144.093H1005.76V145.041H1006.71V144.093ZM1006.71 73.1507V72.2026H1005.76V73.1507H1006.71ZM1024.45 73.1507H1025.39V72.2026H1024.45V73.1507ZM1024.45 144.093V145.041H1025.39V144.093H1024.45ZM1007.66 144.093V94.4195H1005.76V144.093H1007.66ZM1007.66 94.4195V73.1507H1005.76V94.4195H1007.66ZM1006.71 74.0989H1024.45V72.2026H1006.71V74.0989ZM1023.5 73.1507V144.093H1025.39V73.1507H1023.5ZM1024.45 143.145H1006.71V145.041H1024.45V143.145ZM1093.59 144.093L1092.92 144.763L1093.19 145.041H1093.59V144.093ZM1031.51 82.0185H1030.56V82.4112L1030.84 82.689L1031.51 82.0185ZM1031.51 73.1507V72.2026H1030.56V73.1507H1031.51ZM1049.25 73.1507L1049.92 72.4803L1049.64 72.2026H1049.25V73.1507ZM1111.32 135.225H1112.27V134.832L1111.99 134.555L1111.32 135.225ZM1111.32 144.093V145.041H1112.27V144.093H1111.32ZM1111.32 126.357L1110.65 127.028L1112.27 128.646V126.357H1111.32ZM1093.59 108.622H1092.64V109.015L1092.92 109.292L1093.59 108.622ZM1093.59 73.1507V72.2026H1092.64V73.1507H1093.59ZM1111.32 73.1507H1112.27V72.2026H1111.32V73.1507ZM1094.26 143.422L1032.18 81.348L1030.84 82.689L1092.92 144.763L1094.26 143.422ZM1032.46 82.0185V75.7834H1030.56V82.0185H1032.46ZM1032.46 75.7834V73.1507H1030.56V75.7834H1032.46ZM1031.51 74.0989H1049.25V72.2026H1031.51V74.0989ZM1048.58 73.8212L1110.65 135.895L1111.99 134.555L1049.92 72.4803L1048.58 73.8212ZM1110.37 135.225V144.093H1112.27V135.225H1110.37ZM1111.32 143.145H1093.59V145.041H1111.32V143.145ZM1111.99 125.687L1094.26 107.951L1092.92 109.292L1110.65 127.028L1111.99 125.687ZM1094.54 108.622V73.1507H1092.64V108.622H1094.54ZM1093.59 74.0989H1111.32V72.2026H1093.59V74.0989ZM1110.37 73.1507V126.357H1112.27V73.1507H1110.37ZM1118.39 144.093H1117.44V145.041H1118.39V144.093ZM1118.39 73.1507V72.2026H1117.44V73.1507H1118.39ZM1136.12 73.1507L1136.8 72.4803L1136.52 72.2026H1136.12V73.1507ZM1198.2 135.225H1199.15V134.832L1198.87 134.555L1198.2 135.225ZM1198.2 144.093V145.041H1199.15V144.093H1198.2ZM1180.46 144.093L1179.79 144.763L1180.07 145.041H1180.46V144.093ZM1136.12 99.754L1136.8 99.0835L1135.18 97.4649V99.754H1136.12ZM1136.12 117.49H1135.18V118.438H1136.12V117.49ZM1144.99 117.49L1145.66 116.819L1145.39 116.541H1144.99V117.49ZM1162.73 135.225V136.173H1165.02L1163.4 134.555L1162.73 135.225ZM1136.12 135.225V134.277H1135.18V135.225H1136.12ZM1136.12 144.093V145.041H1137.07V144.093H1136.12ZM1119.34 144.093V94.4195H1117.44V144.093H1119.34ZM1119.34 94.4195V73.1507H1117.44V94.4195H1119.34ZM1118.39 74.0989H1136.12V72.2026H1118.39V74.0989ZM1135.45 73.8212L1197.53 135.895L1198.87 134.555L1136.8 72.4803L1135.45 73.8212ZM1197.25 135.225V144.093H1199.15V135.225H1197.25ZM1198.2 143.145H1180.46V145.041H1198.2V143.145ZM1181.13 143.422L1136.8 99.0835L1135.45 100.424L1179.79 144.763L1181.13 143.422ZM1135.18 99.754V117.49H1137.07V99.754H1135.18ZM1136.12 118.438H1144.99V116.541H1136.12V118.438ZM1144.32 118.16L1162.06 135.895L1163.4 134.555L1145.66 116.819L1144.32 118.16ZM1162.73 134.277H1136.12V136.173H1162.73V134.277ZM1135.18 135.225V144.093H1137.07V135.225H1135.18ZM1136.12 143.145H1118.39V145.041H1136.12V143.145ZM1214.13 144.093L1213.46 143.422L1211.84 145.041H1214.13V144.093ZM1231.87 126.357V125.409H1231.48L1231.2 125.687L1231.87 126.357ZM1276.21 126.357L1276.88 125.687L1276.6 125.409H1276.21V126.357ZM1285.08 135.225H1286.02V134.832L1285.75 134.555L1285.08 135.225ZM1285.08 144.093V145.041H1286.02V144.093H1285.08ZM1205.27 144.093H1204.32V146.382L1205.94 144.763L1205.27 144.093ZM1205.27 73.1507V72.2026H1204.32V73.1507H1205.27ZM1223 73.1507H1223.95V72.2026H1223V73.1507ZM1223 126.357L1223.67 127.028L1223.95 126.75V126.357H1223ZM1214.8 144.763L1232.54 127.028L1231.2 125.687L1213.46 143.422L1214.8 144.763ZM1231.87 127.305H1276.21V125.409H1231.87V127.305ZM1275.54 127.028L1284.4 135.895L1285.75 134.555L1276.88 125.687L1275.54 127.028ZM1284.13 135.225V144.093H1286.02V135.225H1284.13ZM1285.08 143.145H1214.13V145.041H1285.08V143.145ZM1206.21 144.093V94.4195H1204.32V144.093H1206.21ZM1206.21 94.4195V73.1507H1204.32V94.4195H1206.21ZM1205.27 74.0989H1223V72.2026H1205.27V74.0989ZM1222.05 73.1507V126.357H1223.95V73.1507H1222.05ZM1222.33 125.687L1204.6 143.422L1205.94 144.763L1223.67 127.028L1222.33 125.687Z" fill="black" mask="url(#path-1-outside-1_2814_7)"/>
<mask id="path-3-outside-2_2814_7" maskUnits="userSpaceOnUse" x="15" y="36" width="1269" height="104" fill="black">
<rect fill="white" x="15" y="36" width="1269" height="104"/>
<path d="M16.0311 112.17V59.9891V37.6812H40.8608V87.3406L16.0311 112.17ZM16.0311 137V128.271V124.585L102.935 37.6812H127.765V50.096L40.8608 137H16.0311ZM65.6905 137V124.585L152.595 37.6812H177.424V50.096L90.5203 137H65.6905ZM187.317 137V128.271V124.585L224.562 87.3406L187.317 50.096V37.6812H212.147L249.392 74.9257H286.636V99.7554H249.392L236.977 112.17H286.636L299.051 124.585V137H187.317ZM249.392 62.5109L224.562 37.6812H299.051V50.096L286.636 62.5109H249.392ZM308.944 137V67.4574V37.6812H395.848L371.018 62.5109H333.774V74.9257H371.018L408.263 37.6812H420.678V62.5109L395.848 87.3406L420.678 112.17V137H321.359L346.189 112.17H383.433L371.018 99.7554H333.774V112.17L308.944 137ZM465.294 137V128.271V124.585L477.708 112.17H502.538L477.708 137H465.294ZM490.123 99.7554V87.3406L502.538 74.9257H539.783L514.953 99.7554H490.123ZM490.123 137L514.953 112.17H552.198V99.7554H527.368L577.027 50.096V137H490.123ZM477.708 62.5109L465.294 50.096V41.3668V37.6812H577.027L552.198 62.5109H477.708ZM656.366 137L674.102 119.264H727.308L736.176 128.132V137H656.366ZM656.366 128.132V97.0951V83.7935L674.102 66.058H736.176V74.9257L727.308 83.7935H682.969L674.102 92.6612V110.397L656.366 128.132ZM743.242 137V87.3267V66.058H760.978L823.052 128.132V137H805.317L760.978 92.6612V110.397H769.846L787.581 128.132H760.978V137H743.242ZM830.119 137V87.3267V66.058L847.854 83.7935V137H830.119ZM892.193 137L865.59 110.397H856.722V92.6612H874.457L883.325 83.7935H856.722L838.986 66.058H909.928V83.7935L892.193 101.529H892.124C891.361 102.291 889.907 103.746 887.759 105.963L909.928 128.132V137H892.193ZM916.995 137V99.7277V83.7935L934.73 101.529V137H916.995ZM979.069 137L916.995 74.9257V68.6906V66.058H934.73L979.069 110.397V66.058H996.805V137H979.069ZM1003.87 137V87.3267V66.058H1021.61V137H1003.87ZM1090.75 137L1028.67 74.9257V68.6906V66.058H1046.41L1108.48 128.132V137H1090.75ZM1108.48 119.264L1090.75 101.529V66.058H1108.48V119.264ZM1115.55 137V87.3267V66.058H1133.28L1195.36 128.132V137H1177.62L1133.28 92.6612V110.397H1142.15L1159.89 128.132H1133.28V137H1115.55ZM1211.29 137L1229.03 119.264H1273.37L1282.24 128.132V137H1211.29ZM1202.43 137V87.3267V66.058H1220.16V119.264L1202.43 137Z"/>
</mask>
<path d="M16.0311 112.17V59.9891V37.6812H40.8608V87.3406L16.0311 112.17ZM16.0311 137V128.271V124.585L102.935 37.6812H127.765V50.096L40.8608 137H16.0311ZM65.6905 137V124.585L152.595 37.6812H177.424V50.096L90.5203 137H65.6905ZM187.317 137V128.271V124.585L224.562 87.3406L187.317 50.096V37.6812H212.147L249.392 74.9257H286.636V99.7554H249.392L236.977 112.17H286.636L299.051 124.585V137H187.317ZM249.392 62.5109L224.562 37.6812H299.051V50.096L286.636 62.5109H249.392ZM308.944 137V67.4574V37.6812H395.848L371.018 62.5109H333.774V74.9257H371.018L408.263 37.6812H420.678V62.5109L395.848 87.3406L420.678 112.17V137H321.359L346.189 112.17H383.433L371.018 99.7554H333.774V112.17L308.944 137ZM465.294 137V128.271V124.585L477.708 112.17H502.538L477.708 137H465.294ZM490.123 99.7554V87.3406L502.538 74.9257H539.783L514.953 99.7554H490.123ZM490.123 137L514.953 112.17H552.198V99.7554H527.368L577.027 50.096V137H490.123ZM477.708 62.5109L465.294 50.096V41.3668V37.6812H577.027L552.198 62.5109H477.708ZM656.366 137L674.102 119.264H727.308L736.176 128.132V137H656.366ZM656.366 128.132V97.0951V83.7935L674.102 66.058H736.176V74.9257L727.308 83.7935H682.969L674.102 92.6612V110.397L656.366 128.132ZM743.242 137V87.3267V66.058H760.978L823.052 128.132V137H805.317L760.978 92.6612V110.397H769.846L787.581 128.132H760.978V137H743.242ZM830.119 137V87.3267V66.058L847.854 83.7935V137H830.119ZM892.193 137L865.59 110.397H856.722V92.6612H874.457L883.325 83.7935H856.722L838.986 66.058H909.928V83.7935L892.193 101.529H892.124C891.361 102.291 889.907 103.746 887.759 105.963L909.928 128.132V137H892.193ZM916.995 137V99.7277V83.7935L934.73 101.529V137H916.995ZM979.069 137L916.995 74.9257V68.6906V66.058H934.73L979.069 110.397V66.058H996.805V137H979.069ZM1003.87 137V87.3267V66.058H1021.61V137H1003.87ZM1090.75 137L1028.67 74.9257V68.6906V66.058H1046.41L1108.48 128.132V137H1090.75ZM1108.48 119.264L1090.75 101.529V66.058H1108.48V119.264ZM1115.55 137V87.3267V66.058H1133.28L1195.36 128.132V137H1177.62L1133.28 92.6612V110.397H1142.15L1159.89 128.132H1133.28V137H1115.55ZM1211.29 137L1229.03 119.264H1273.37L1282.24 128.132V137H1211.29ZM1202.43 137V87.3267V66.058H1220.16V119.264L1202.43 137Z" fill="#FBFF00"/>
<path d="M16.0311 112.17H15.083V114.459L16.7016 112.841L16.0311 112.17ZM16.0311 37.6812V36.733H15.083V37.6812H16.0311ZM40.8608 37.6812H41.809V36.733H40.8608V37.6812ZM40.8608 87.3406L41.5313 88.011L41.809 87.7333V87.3406H40.8608ZM16.0311 137H15.083V137.948H16.0311V137ZM16.0311 124.585L15.3607 123.915L15.083 124.192V124.585H16.0311ZM102.935 37.6812V36.733H102.542L102.265 37.0107L102.935 37.6812ZM127.765 37.6812H128.713V36.733H127.765V37.6812ZM127.765 50.096L128.435 50.7665L128.713 50.4888V50.096H127.765ZM40.8608 137V137.948H41.2536L41.5313 137.67L40.8608 137ZM65.6905 137H64.7424V137.948H65.6905V137ZM65.6905 124.585L65.0201 123.915L64.7424 124.192V124.585H65.6905ZM152.595 37.6812V36.733H152.202L151.924 37.0107L152.595 37.6812ZM177.424 37.6812H178.372V36.733H177.424V37.6812ZM177.424 50.096L178.095 50.7665L178.372 50.4888V50.096H177.424ZM90.5203 137V137.948H90.913L91.1907 137.67L90.5203 137ZM16.9793 112.17V59.9891H15.083V112.17H16.9793ZM16.9793 59.9891V37.6812H15.083V59.9891H16.9793ZM16.0311 38.6293H40.8608V36.733H16.0311V38.6293ZM39.9127 37.6812V87.3406H41.809V37.6812H39.9127ZM40.1904 86.6701L15.3607 111.5L16.7016 112.841L41.5313 88.011L40.1904 86.6701ZM16.9793 137V128.271H15.083V137H16.9793ZM16.9793 128.271V124.585H15.083V128.271H16.9793ZM16.7016 125.256L103.606 38.3516L102.265 37.0107L15.3607 123.915L16.7016 125.256ZM102.935 38.6293H127.765V36.733H102.935V38.6293ZM126.817 37.6812V50.096H128.713V37.6812H126.817ZM127.094 49.4256L40.1904 136.33L41.5313 137.67L128.435 50.7665L127.094 49.4256ZM40.8608 136.052H16.0311V137.948H40.8608V136.052ZM66.6387 137V124.585H64.7424V137H66.6387ZM66.361 125.256L153.265 38.3516L151.924 37.0107L65.0201 123.915L66.361 125.256ZM152.595 38.6293H177.424V36.733H152.595V38.6293ZM176.476 37.6812V50.096H178.372V37.6812H176.476ZM176.754 49.4256L89.8498 136.33L91.1907 137.67L178.095 50.7665L176.754 49.4256ZM90.5203 136.052H65.6905V137.948H90.5203V136.052ZM187.317 137H186.369V137.948H187.317V137ZM187.317 124.585L186.647 123.915L186.369 124.192V124.585H187.317ZM224.562 87.3406L225.232 88.011L225.903 87.3406L225.232 86.6701L224.562 87.3406ZM187.317 50.096H186.369V50.4888L186.647 50.7665L187.317 50.096ZM187.317 37.6812V36.733H186.369V37.6812H187.317ZM212.147 37.6812L212.817 37.0107L212.54 36.733H212.147V37.6812ZM249.392 74.9257L248.721 75.5962L248.999 75.8739H249.392V74.9257ZM286.636 74.9257H287.584V73.9776H286.636V74.9257ZM286.636 99.7554V100.704H287.584V99.7554H286.636ZM249.392 99.7554V98.8073H248.999L248.721 99.085L249.392 99.7554ZM236.977 112.17L236.306 111.5L234.688 113.118H236.977V112.17ZM286.636 112.17L287.307 111.5L287.029 111.222H286.636V112.17ZM299.051 124.585H299.999V124.192L299.721 123.915L299.051 124.585ZM299.051 137V137.948H299.999V137H299.051ZM249.392 62.5109L248.721 63.1813L248.999 63.4591H249.392V62.5109ZM224.562 37.6812V36.733H222.273L223.891 38.3516L224.562 37.6812ZM299.051 37.6812H299.999V36.733H299.051V37.6812ZM299.051 50.096L299.721 50.7665L299.999 50.4888V50.096H299.051ZM286.636 62.5109V63.4591H287.029L287.307 63.1813L286.636 62.5109ZM188.265 137V128.271H186.369V137H188.265ZM188.265 128.271V124.585H186.369V128.271H188.265ZM187.988 125.256L225.232 88.011L223.891 86.6701L186.647 123.915L187.988 125.256ZM225.232 86.6701L187.988 49.4256L186.647 50.7665L223.891 88.011L225.232 86.6701ZM188.265 50.096V37.6812H186.369V50.096H188.265ZM187.317 38.6293H212.147V36.733H187.317V38.6293ZM211.477 38.3516L248.721 75.5962L250.062 74.2553L212.817 37.0107L211.477 38.3516ZM249.392 75.8739H286.636V73.9776H249.392V75.8739ZM285.688 74.9257V99.7554H287.584V74.9257H285.688ZM286.636 98.8073H249.392V100.704H286.636V98.8073ZM248.721 99.085L236.306 111.5L237.647 112.841L250.062 100.426L248.721 99.085ZM236.977 113.118H286.636V111.222H236.977V113.118ZM285.966 112.841L298.381 125.256L299.721 123.915L287.307 111.5L285.966 112.841ZM298.103 124.585V137H299.999V124.585H298.103ZM299.051 136.052H187.317V137.948H299.051V136.052ZM250.062 61.8404L225.232 37.0107L223.891 38.3516L248.721 63.1813L250.062 61.8404ZM224.562 38.6293H299.051V36.733H224.562V38.6293ZM298.103 37.6812V50.096H299.999V37.6812H298.103ZM298.381 49.4256L285.966 61.8404L287.307 63.1813L299.721 50.7665L298.381 49.4256ZM286.636 61.5627H249.392V63.4591H286.636V61.5627ZM308.944 137H307.996V139.289L309.615 137.67L308.944 137ZM308.944 37.6812V36.733H307.996V37.6812H308.944ZM395.848 37.6812L396.519 38.3516L398.137 36.733H395.848V37.6812ZM371.018 62.5109V63.4591H371.411L371.689 63.1813L371.018 62.5109ZM333.774 62.5109V61.5627H332.826V62.5109H333.774ZM333.774 74.9257H332.826V75.8739H333.774V74.9257ZM371.018 74.9257V75.8739H371.411L371.689 75.5962L371.018 74.9257ZM408.263 37.6812V36.733H407.87L407.592 37.0107L408.263 37.6812ZM420.678 37.6812H421.626V36.733H420.678V37.6812ZM420.678 62.5109L421.348 63.1813L421.626 62.9036V62.5109H420.678ZM395.848 87.3406L395.178 86.6701L394.507 87.3406L395.178 88.011L395.848 87.3406ZM420.678 112.17H421.626V111.778L421.348 111.5L420.678 112.17ZM420.678 137V137.948H421.626V137H420.678ZM321.359 137L320.688 136.33L319.07 137.948H321.359V137ZM346.189 112.17V111.222H345.796L345.518 111.5L346.189 112.17ZM383.433 112.17V113.118H385.722L384.104 111.5L383.433 112.17ZM371.018 99.7554L371.689 99.085L371.411 98.8073H371.018V99.7554ZM333.774 99.7554V98.8073H332.826V99.7554H333.774ZM333.774 112.17L334.444 112.841L334.722 112.563V112.17H333.774ZM309.892 137V67.4574H307.996V137H309.892ZM309.892 67.4574V37.6812H307.996V67.4574H309.892ZM308.944 38.6293H395.848V36.733H308.944V38.6293ZM395.178 37.0107L370.348 61.8404L371.689 63.1813L396.519 38.3516L395.178 37.0107ZM371.018 61.5627H333.774V63.4591H371.018V61.5627ZM332.826 62.5109V74.9257H334.722V62.5109H332.826ZM333.774 75.8739H371.018V73.9776H333.774V75.8739ZM371.689 75.5962L408.933 38.3516L407.592 37.0107L370.348 74.2553L371.689 75.5962ZM408.263 38.6293H420.678V36.733H408.263V38.6293ZM419.73 37.6812V62.5109H421.626V37.6812H419.73ZM420.007 61.8404L395.178 86.6701L396.519 88.011L421.348 63.1813L420.007 61.8404ZM395.178 88.011L420.007 112.841L421.348 111.5L396.519 86.6701L395.178 88.011ZM419.73 112.17V137H421.626V112.17H419.73ZM420.678 136.052H321.359V137.948H420.678V136.052ZM322.029 137.67L346.859 112.841L345.518 111.5L320.688 136.33L322.029 137.67ZM346.189 113.118H383.433V111.222H346.189V113.118ZM384.104 111.5L371.689 99.085L370.348 100.426L382.763 112.841L384.104 111.5ZM371.018 98.8073H333.774V100.704H371.018V98.8073ZM332.826 99.7554V112.17H334.722V99.7554H332.826ZM333.103 111.5L308.274 136.33L309.615 137.67L334.444 112.841L333.103 111.5ZM465.294 137H464.345V137.948H465.294V137ZM465.294 124.585L464.623 123.915L464.345 124.192V124.585H465.294ZM477.708 112.17V111.222H477.316L477.038 111.5L477.708 112.17ZM502.538 112.17L503.209 112.841L504.827 111.222H502.538V112.17ZM477.708 137V137.948H478.101L478.379 137.67L477.708 137ZM490.123 99.7554H489.175V100.704H490.123V99.7554ZM490.123 87.3406L489.453 86.6701L489.175 86.9478V87.3406H490.123ZM502.538 74.9257V73.9776H502.145L501.868 74.2553L502.538 74.9257ZM539.783 74.9257L540.453 75.5962L542.072 73.9776H539.783V74.9257ZM514.953 99.7554V100.704H515.346L515.624 100.426L514.953 99.7554ZM490.123 137L489.453 136.33L487.834 137.948H490.123V137ZM514.953 112.17V111.222H514.56L514.283 111.5L514.953 112.17ZM552.198 112.17V113.118H553.146V112.17H552.198ZM552.198 99.7554H553.146V98.8073H552.198V99.7554ZM527.368 99.7554L526.697 99.085L525.079 100.704H527.368V99.7554ZM577.027 50.096H577.976V47.8069L576.357 49.4256L577.027 50.096ZM577.027 137V137.948H577.976V137H577.027ZM477.708 62.5109L477.038 63.1813L477.316 63.4591H477.708V62.5109ZM465.294 50.096H464.345V50.4888L464.623 50.7665L465.294 50.096ZM465.294 37.6812V36.733H464.345V37.6812H465.294ZM577.027 37.6812L577.698 38.3516L579.316 36.733H577.027V37.6812ZM552.198 62.5109V63.4591H552.59L552.868 63.1813L552.198 62.5109ZM466.242 137V128.271H464.345V137H466.242ZM466.242 128.271V124.585H464.345V128.271H466.242ZM465.964 125.256L478.379 112.841L477.038 111.5L464.623 123.915L465.964 125.256ZM477.708 113.118H502.538V111.222H477.708V113.118ZM501.868 111.5L477.038 136.33L478.379 137.67L503.209 112.841L501.868 111.5ZM477.708 136.052H465.294V137.948H477.708V136.052ZM491.072 99.7554V87.3406H489.175V99.7554H491.072ZM490.794 88.011L503.209 75.5962L501.868 74.2553L489.453 86.6701L490.794 88.011ZM502.538 75.8739H539.783V73.9776H502.538V75.8739ZM539.112 74.2553L514.283 99.085L515.624 100.426L540.453 75.5962L539.112 74.2553ZM514.953 98.8073H490.123V100.704H514.953V98.8073ZM490.794 137.67L515.624 112.841L514.283 111.5L489.453 136.33L490.794 137.67ZM514.953 113.118H552.198V111.222H514.953V113.118ZM553.146 112.17V99.7554H551.249V112.17H553.146ZM552.198 98.8073H527.368V100.704H552.198V98.8073ZM528.038 100.426L577.698 50.7665L576.357 49.4256L526.697 99.085L528.038 100.426ZM576.079 50.096V137H577.976V50.096H576.079ZM577.027 136.052H490.123V137.948H577.027V136.052ZM478.379 61.8404L465.964 49.4256L464.623 50.7665L477.038 63.1813L478.379 61.8404ZM466.242 50.096V41.3668H464.345V50.096H466.242ZM466.242 41.3668V37.6812H464.345V41.3668H466.242ZM465.294 38.6293H577.027V36.733H465.294V38.6293ZM576.357 37.0107L551.527 61.8404L552.868 63.1813L577.698 38.3516L576.357 37.0107ZM552.198 61.5627H477.708V63.4591H552.198V61.5627ZM656.366 137L655.696 136.33L654.077 137.948H656.366V137ZM674.102 119.264V118.316H673.709L673.431 118.594L674.102 119.264ZM727.308 119.264L727.979 118.594L727.701 118.316H727.308V119.264ZM736.176 128.132H737.124V127.74L736.846 127.462L736.176 128.132ZM736.176 137V137.948H737.124V137H736.176ZM656.366 128.132H655.418V130.421L657.036 128.803L656.366 128.132ZM656.366 83.7935L655.696 83.123L655.418 83.4007V83.7935H656.366ZM674.102 66.058V65.1098H673.709L673.431 65.3875L674.102 66.058ZM736.176 66.058H737.124V65.1098H736.176V66.058ZM736.176 74.9257L736.846 75.5962L737.124 75.3185V74.9257H736.176ZM727.308 83.7935V84.7417H727.701L727.979 84.4639L727.308 83.7935ZM682.969 83.7935V82.8453H682.577L682.299 83.123L682.969 83.7935ZM674.102 92.6612L673.431 91.9908L673.153 92.2685V92.6612H674.102ZM674.102 110.397L674.772 111.067L675.05 110.789V110.397H674.102ZM657.036 137.67L674.772 119.935L673.431 118.594L655.696 136.33L657.036 137.67ZM674.102 120.213H727.308V118.316H674.102V120.213ZM726.638 119.935L735.505 128.803L736.846 127.462L727.979 118.594L726.638 119.935ZM735.228 128.132V137H737.124V128.132H735.228ZM736.176 136.052H656.366V137.948H736.176V136.052ZM657.314 128.132V97.0951H655.418V128.132H657.314ZM657.314 97.0951V83.7935H655.418V97.0951H657.314ZM657.036 84.4639L674.772 66.7284L673.431 65.3875L655.696 83.123L657.036 84.4639ZM674.102 67.0062H736.176V65.1098H674.102V67.0062ZM735.228 66.058V74.9257H737.124V66.058H735.228ZM735.505 74.2553L726.638 83.123L727.979 84.4639L736.846 75.5962L735.505 74.2553ZM727.308 82.8453H682.969V84.7417H727.308V82.8453ZM682.299 83.123L673.431 91.9908L674.772 93.3317L683.64 84.4639L682.299 83.123ZM673.153 92.6612V110.397H675.05V92.6612H673.153ZM673.431 109.726L655.696 127.462L657.036 128.803L674.772 111.067L673.431 109.726ZM743.242 137H742.294V137.948H743.242V137ZM743.242 66.058V65.1098H742.294V66.058H743.242ZM760.978 66.058L761.648 65.3875L761.371 65.1098H760.978V66.058ZM823.052 128.132H824V127.74L823.723 127.462L823.052 128.132ZM823.052 137V137.948H824V137H823.052ZM805.317 137L804.646 137.67L804.924 137.948H805.317V137ZM760.978 92.6612L761.648 91.9908L760.03 90.3721V92.6612H760.978ZM760.978 110.397H760.03V111.345H760.978V110.397ZM769.846 110.397L770.516 109.726L770.238 109.449H769.846V110.397ZM787.581 128.132V129.08H789.87L788.252 127.462L787.581 128.132ZM760.978 128.132V127.184H760.03V128.132H760.978ZM760.978 137V137.948H761.926V137H760.978ZM744.19 137V87.3267H742.294V137H744.19ZM744.19 87.3267V66.058H742.294V87.3267H744.19ZM743.242 67.0062H760.978V65.1098H743.242V67.0062ZM760.307 66.7284L822.382 128.803L823.723 127.462L761.648 65.3875L760.307 66.7284ZM822.104 128.132V137H824V128.132H822.104ZM823.052 136.052H805.317V137.948H823.052V136.052ZM805.987 136.33L761.648 91.9908L760.307 93.3317L804.646 137.67L805.987 136.33ZM760.03 92.6612V110.397H761.926V92.6612H760.03ZM760.978 111.345H769.846V109.449H760.978V111.345ZM769.175 111.067L786.911 128.803L788.252 127.462L770.516 109.726L769.175 111.067ZM787.581 127.184H760.978V129.08H787.581V127.184ZM760.03 128.132V137H761.926V128.132H760.03ZM760.978 136.052H743.242V137.948H760.978V136.052ZM830.119 137H829.17V137.948H830.119V137ZM830.119 66.058L830.789 65.3875L829.17 63.7689V66.058H830.119ZM847.854 83.7935H848.802V83.4007L848.524 83.123L847.854 83.7935ZM847.854 137V137.948H848.802V137H847.854ZM892.193 137L891.522 137.67L891.8 137.948H892.193V137ZM865.59 110.397L866.26 109.726L865.982 109.449H865.59V110.397ZM856.722 110.397H855.774V111.345H856.722V110.397ZM856.722 92.6612V91.7131H855.774V92.6612H856.722ZM874.457 92.6612V93.6094H874.85L875.128 93.3317L874.457 92.6612ZM883.325 83.7935L883.996 84.4639L885.614 82.8453H883.325V83.7935ZM856.722 83.7935L856.051 84.4639L856.329 84.7417H856.722V83.7935ZM838.986 66.058V65.1098H836.697L838.316 66.7284L838.986 66.058ZM909.928 66.058H910.876V65.1098H909.928V66.058ZM909.928 83.7935L910.599 84.4639L910.876 84.1862V83.7935H909.928ZM892.193 101.529V102.477H892.586L892.863 102.199L892.193 101.529ZM892.124 101.529V100.581H891.731L891.453 100.859L892.124 101.529ZM887.759 105.963L887.078 105.303L886.429 105.973L887.088 106.633L887.759 105.963ZM909.928 128.132H910.876V127.74L910.599 127.462L909.928 128.132ZM909.928 137V137.948H910.876V137H909.928ZM831.067 137V87.3267H829.17V137H831.067ZM831.067 87.3267V66.058H829.17V87.3267H831.067ZM829.448 66.7284L847.184 84.4639L848.524 83.123L830.789 65.3875L829.448 66.7284ZM846.906 83.7935V137H848.802V83.7935H846.906ZM847.854 136.052H830.119V137.948H847.854V136.052ZM892.863 136.33L866.26 109.726L864.919 111.067L891.522 137.67L892.863 136.33ZM865.59 109.449H856.722V111.345H865.59V109.449ZM857.67 110.397V92.6612H855.774V110.397H857.67ZM856.722 93.6094H874.457V91.7131H856.722V93.6094ZM875.128 93.3317L883.996 84.4639L882.655 83.123L873.787 91.9908L875.128 93.3317ZM883.325 82.8453H856.722V84.7417H883.325V82.8453ZM857.392 83.123L839.657 65.3875L838.316 66.7284L856.051 84.4639L857.392 83.123ZM838.986 67.0062H909.928V65.1098H838.986V67.0062ZM908.98 66.058V83.7935H910.876V66.058H908.98ZM909.258 83.123L891.522 100.859L892.863 102.199L910.599 84.4639L909.258 83.123ZM892.193 100.581H892.124V102.477H892.193V100.581ZM891.453 100.859C890.689 101.622 889.231 103.081 887.078 105.303L888.44 106.623C890.583 104.411 892.033 102.96 892.794 102.199L891.453 100.859ZM887.088 106.633L909.258 128.803L910.599 127.462L888.429 105.292L887.088 106.633ZM908.98 128.132V137H910.876V128.132H908.98ZM909.928 136.052H892.193V137.948H909.928V136.052ZM916.995 137H916.047V137.948H916.995V137ZM916.995 83.7935L917.665 83.123L916.047 81.5044V83.7935H916.995ZM934.73 101.529H935.678V101.136L935.401 100.859L934.73 101.529ZM934.73 137V137.948H935.678V137H934.73ZM979.069 137L978.399 137.67L978.676 137.948H979.069V137ZM916.995 74.9257H916.047V75.3185L916.324 75.5962L916.995 74.9257ZM916.995 66.058V65.1098H916.047V66.058H916.995ZM934.73 66.058L935.401 65.3875L935.123 65.1098H934.73V66.058ZM979.069 110.397L978.399 111.067L980.017 112.686V110.397H979.069ZM979.069 66.058V65.1098H978.121V66.058H979.069ZM996.805 66.058H997.753V65.1098H996.805V66.058ZM996.805 137V137.948H997.753V137H996.805ZM917.943 137V99.7277H916.047V137H917.943ZM917.943 99.7277V83.7935H916.047V99.7277H917.943ZM916.324 84.4639L934.06 102.199L935.401 100.859L917.665 83.123L916.324 84.4639ZM933.782 101.529V137H935.678V101.529H933.782ZM934.73 136.052H916.995V137.948H934.73V136.052ZM979.74 136.33L917.665 74.2553L916.324 75.5962L978.399 137.67L979.74 136.33ZM917.943 74.9257V68.6906H916.047V74.9257H917.943ZM917.943 68.6906V66.058H916.047V68.6906H917.943ZM916.995 67.0062H934.73V65.1098H916.995V67.0062ZM934.06 66.7284L978.399 111.067L979.74 109.726L935.401 65.3875L934.06 66.7284ZM980.017 110.397V66.058H978.121V110.397H980.017ZM979.069 67.0062H996.805V65.1098H979.069V67.0062ZM995.856 66.058V137H997.753V66.058H995.856ZM996.805 136.052H979.069V137.948H996.805V136.052ZM1003.87 137H1002.92V137.948H1003.87V137ZM1003.87 66.058V65.1098H1002.92V66.058H1003.87ZM1021.61 66.058H1022.55V65.1098H1021.61V66.058ZM1021.61 137V137.948H1022.55V137H1021.61ZM1004.82 137V87.3267H1002.92V137H1004.82ZM1004.82 87.3267V66.058H1002.92V87.3267H1004.82ZM1003.87 67.0062H1021.61V65.1098H1003.87V67.0062ZM1020.66 66.058V137H1022.55V66.058H1020.66ZM1021.61 136.052H1003.87V137.948H1021.61V136.052ZM1090.75 137L1090.08 137.67L1090.35 137.948H1090.75V137ZM1028.67 74.9257H1027.72V75.3185L1028 75.5962L1028.67 74.9257ZM1028.67 66.058V65.1098H1027.72V66.058H1028.67ZM1046.41 66.058L1047.08 65.3875L1046.8 65.1098H1046.41V66.058ZM1108.48 128.132H1109.43V127.74L1109.15 127.462L1108.48 128.132ZM1108.48 137V137.948H1109.43V137H1108.48ZM1108.48 119.264L1107.81 119.935L1109.43 121.554V119.264H1108.48ZM1090.75 101.529H1089.8V101.922L1090.08 102.199L1090.75 101.529ZM1090.75 66.058V65.1098H1089.8V66.058H1090.75ZM1108.48 66.058H1109.43V65.1098H1108.48V66.058ZM1091.42 136.33L1029.34 74.2553L1028 75.5962L1090.08 137.67L1091.42 136.33ZM1029.62 74.9257V68.6906H1027.72V74.9257H1029.62ZM1029.62 68.6906V66.058H1027.72V68.6906H1029.62ZM1028.67 67.0062H1046.41V65.1098H1028.67V67.0062ZM1045.74 66.7284L1107.81 128.803L1109.15 127.462L1047.08 65.3875L1045.74 66.7284ZM1107.53 128.132V137H1109.43V128.132H1107.53ZM1108.48 136.052H1090.75V137.948H1108.48V136.052ZM1109.15 118.594L1091.42 100.859L1090.08 102.199L1107.81 119.935L1109.15 118.594ZM1091.7 101.529V66.058H1089.8V101.529H1091.7ZM1090.75 67.0062H1108.48V65.1098H1090.75V67.0062ZM1107.53 66.058V119.264H1109.43V66.058H1107.53ZM1115.55 137H1114.6V137.948H1115.55V137ZM1115.55 66.058V65.1098H1114.6V66.058H1115.55ZM1133.28 66.058L1133.96 65.3875L1133.68 65.1098H1133.28V66.058ZM1195.36 128.132H1196.31V127.74L1196.03 127.462L1195.36 128.132ZM1195.36 137V137.948H1196.31V137H1195.36ZM1177.62 137L1176.95 137.67L1177.23 137.948H1177.62V137ZM1133.28 92.6612L1133.96 91.9908L1132.34 90.3721V92.6612H1133.28ZM1133.28 110.397H1132.34V111.345H1133.28V110.397ZM1142.15 110.397L1142.82 109.726L1142.55 109.449H1142.15V110.397ZM1159.89 128.132V129.08H1162.18L1160.56 127.462L1159.89 128.132ZM1133.28 128.132V127.184H1132.34V128.132H1133.28ZM1133.28 137V137.948H1134.23V137H1133.28ZM1116.5 137V87.3267H1114.6V137H1116.5ZM1116.5 87.3267V66.058H1114.6V87.3267H1116.5ZM1115.55 67.0062H1133.28V65.1098H1115.55V67.0062ZM1132.61 66.7284L1194.69 128.803L1196.03 127.462L1133.96 65.3875L1132.61 66.7284ZM1194.41 128.132V137H1196.31V128.132H1194.41ZM1195.36 136.052H1177.62V137.948H1195.36V136.052ZM1178.29 136.33L1133.96 91.9908L1132.61 93.3317L1176.95 137.67L1178.29 136.33ZM1132.34 92.6612V110.397H1134.23V92.6612H1132.34ZM1133.28 111.345H1142.15V109.449H1133.28V111.345ZM1141.48 111.067L1159.22 128.803L1160.56 127.462L1142.82 109.726L1141.48 111.067ZM1159.89 127.184H1133.28V129.08H1159.89V127.184ZM1132.34 128.132V137H1134.23V128.132H1132.34ZM1133.28 136.052H1115.55V137.948H1133.28V136.052ZM1211.29 137L1210.62 136.33L1209 137.948H1211.29V137ZM1229.03 119.264V118.316H1228.64L1228.36 118.594L1229.03 119.264ZM1273.37 119.264L1274.04 118.594L1273.76 118.316H1273.37V119.264ZM1282.24 128.132H1283.18V127.74L1282.91 127.462L1282.24 128.132ZM1282.24 137V137.948H1283.18V137H1282.24ZM1202.43 137H1201.48V139.289L1203.1 137.67L1202.43 137ZM1202.43 66.058V65.1098H1201.48V66.058H1202.43ZM1220.16 66.058H1221.11V65.1098H1220.16V66.058ZM1220.16 119.264L1220.83 119.935L1221.11 119.657V119.264H1220.16ZM1211.96 137.67L1229.7 119.935L1228.36 118.594L1210.62 136.33L1211.96 137.67ZM1229.03 120.213H1273.37V118.316H1229.03V120.213ZM1272.7 119.935L1281.56 128.803L1282.91 127.462L1274.04 118.594L1272.7 119.935ZM1281.29 128.132V137H1283.18V128.132H1281.29ZM1282.24 136.052H1211.29V137.948H1282.24V136.052ZM1203.37 137V87.3267H1201.48V137H1203.37ZM1203.37 87.3267V66.058H1201.48V87.3267H1203.37ZM1202.43 67.0062H1220.16V65.1098H1202.43V67.0062ZM1219.21 66.058V119.264H1221.11V66.058H1219.21ZM1219.49 118.594L1201.76 136.33L1203.1 137.67L1220.83 119.935L1219.49 118.594Z" fill="black" mask="url(#path-3-outside-2_2814_7)"/>
</svg>
